<svg width="144" height="144" viewBox="0 0 144 144" fill="none" xmlns="http://www.w3.org/2000/svg">
<g clip-path="url(#clip0_124_139)">
<path d="M110.562 29.4659L87.0478 5.95189C83.048 2.13091 77.7293 -0.00128174 72.1978 -0.00128174C66.6662 -0.00128174 61.3475 2.13091 57.3478 5.95189L33.8338 29.4659C32.1944 31.1633 31.2872 33.4367 31.3077 35.7965C31.3282 38.1562 32.2747 40.4135 33.9434 42.0822C35.6121 43.7509 37.8694 44.6974 40.2292 44.7179C42.5889 44.7384 44.8624 43.8313 46.5598 42.1918L63.2398 25.5119L63.3778 135.012C63.3778 137.399 64.326 139.688 66.0138 141.376C67.7016 143.064 69.9908 144.012 72.3778 144.012V144.012C74.7647 144.012 77.0539 143.064 78.7417 141.376C80.4296 139.688 81.3778 137.399 81.3778 135.012L81.2398 25.5959L97.8358 42.1918C98.666 43.0514 99.6591 43.7371 100.757 44.2088C101.855 44.6804 103.036 44.9287 104.231 44.9391C105.426 44.9495 106.611 44.7218 107.717 44.2692C108.823 43.8167 109.828 43.1484 110.673 42.3034C111.518 41.4584 112.187 40.4535 112.639 39.3474C113.092 38.2414 113.319 37.0563 113.309 35.8612C113.299 34.6662 113.05 33.4853 112.579 32.3872C112.107 31.2892 111.421 30.2961 110.562 29.4659V29.4659Z" fill="#D70000"/>
</g>
<defs>
<clipPath id="clip0_124_139">
<rect width="144" height="144" fill="white"/>
</clipPath>
</defs>
</svg>
